<svg xmlns="http://www.w3.org/2000/svg"  viewBox="0 0 48 48" width="48px" height="48px" baseProfile="basic"><linearGradient id="WiuObjRoYV1tSAMaDvd76a" x1="24" x2="24" y1="-17.03" y2="13.049" gradientUnits="userSpaceOnUse"><stop offset="0" stop-color="#262626" stop-opacity="0"/><stop offset="1" stop-color="#262626" stop-opacity=".8"/></linearGradient><path fill="url(#WiuObjRoYV1tSAMaDvd76a)" d="M30,9H18V7c0-1.657,1.343-3,3-3h9V9z"/><linearGradient id="WiuObjRoYV1tSAMaDvd76b" x1="24" x2="24" y1="45.28" y2="-12.976" gradientUnits="userSpaceOnUse"><stop offset="0" stop-color="#262626" stop-opacity="0"/><stop offset="1" stop-color="#262626" stop-opacity=".8"/></linearGradient><path fill="url(#WiuObjRoYV1tSAMaDvd76b)" d="M44,23c0,3.314-2.686,6-6,6H10c-3.314,0-6-2.686-6-6v-8c0-3.314,2.686-6,6-6h34V23z"/><linearGradient id="WiuObjRoYV1tSAMaDvd76c" x1="24" x2="24" y1="49.29" y2="19.775" gradientUnits="userSpaceOnUse"><stop offset="0" stop-color="#262626" stop-opacity="0"/><stop offset="1" stop-color="#262626" stop-opacity=".8"/></linearGradient><path fill="url(#WiuObjRoYV1tSAMaDvd76c)" d="M38,29h-9v1c0,1.657-1.343,3-3,3h-2h-2c-1.657,0-3-1.343-3-3v-1h-9c-3.31,0-6-2.69-6-6v16h20	h14c3.314,0,6-2.686,6-6V23C44,26.31,41.31,29,38,29z"/><linearGradient id="WiuObjRoYV1tSAMaDvd76d" x1="24" x2="24" y1="24.845" y2="48.907" gradientUnits="userSpaceOnUse"><stop offset="0" stop-color="#262626" stop-opacity="0"/><stop offset="1" stop-color="#262626" stop-opacity=".8"/></linearGradient><path fill="url(#WiuObjRoYV1tSAMaDvd76d)" d="M26,33h-4c-1.657,0-3-1.343-3-3v-1h10v1C29,31.657,27.657,33,26,33z"/></svg>